<mxfile host="app.diagrams.net" modified="2021-02-22T06:34:17.301Z" agent="5.0 (Macintosh; Intel Mac OS X 10_15_7) AppleWebKit/537.36 (KHTML, like Gecko) Chrome/88.0.4324.182 Safari/537.36" etag="ULtDetmdhua62IC0IPEb" version="14.2.7" type="github">
  <diagram id="YmtFJk84zcoor4C9bl3p" name="Page-1">
    <mxGraphModel dx="1797" dy="651" grid="0" gridSize="10" guides="1" tooltips="1" connect="1" arrows="1" fold="1" page="1" pageScale="1" pageWidth="827" pageHeight="1169" math="0" shadow="0">
      <root>
        <mxCell id="0" />
        <mxCell id="1" parent="0" />
        <mxCell id="yTp5GHHRRxXiokvlLLee-12" style="edgeStyle=orthogonalEdgeStyle;rounded=0;orthogonalLoop=1;jettySize=auto;html=1;exitX=0.5;exitY=0;exitDx=0;exitDy=0;curved=1;startArrow=blockThin;startFill=1;" parent="1" source="yTp5GHHRRxXiokvlLLee-5" target="YrOK0ddBa_lv7EcNWVk2-1" edge="1">
          <mxGeometry relative="1" as="geometry" />
        </mxCell>
        <mxCell id="yTp5GHHRRxXiokvlLLee-14" value="发布、获取" style="edgeLabel;html=1;align=center;verticalAlign=middle;resizable=0;points=[];" parent="yTp5GHHRRxXiokvlLLee-12" vertex="1" connectable="0">
          <mxGeometry x="-0.0393" y="-1" relative="1" as="geometry">
            <mxPoint as="offset" />
          </mxGeometry>
        </mxCell>
        <mxCell id="yTp5GHHRRxXiokvlLLee-5" value="&lt;font style=&quot;font-size: 14px&quot;&gt;&lt;b&gt;AI工作室&lt;br&gt;&lt;br&gt;&lt;br&gt;&lt;br&gt;&lt;br&gt;&lt;/b&gt;&lt;/font&gt;" style="rounded=1;whiteSpace=wrap;html=1;" parent="1" vertex="1">
          <mxGeometry x="100" y="500" width="281" height="88" as="geometry" />
        </mxCell>
        <mxCell id="YrOK0ddBa_lv7EcNWVk2-15" style="edgeStyle=orthogonalEdgeStyle;curved=1;rounded=0;orthogonalLoop=1;jettySize=auto;html=1;exitX=0.25;exitY=0;exitDx=0;exitDy=0;entryX=0.5;entryY=1;entryDx=0;entryDy=0;" parent="1" source="YrOK0ddBa_lv7EcNWVk2-1" target="YrOK0ddBa_lv7EcNWVk2-8" edge="1">
          <mxGeometry relative="1" as="geometry" />
        </mxCell>
        <mxCell id="YrOK0ddBa_lv7EcNWVk2-17" value="使用" style="edgeLabel;html=1;align=center;verticalAlign=middle;resizable=0;points=[];" parent="YrOK0ddBa_lv7EcNWVk2-15" vertex="1" connectable="0">
          <mxGeometry x="-0.0615" relative="1" as="geometry">
            <mxPoint as="offset" />
          </mxGeometry>
        </mxCell>
        <mxCell id="YrOK0ddBa_lv7EcNWVk2-1" value="&lt;font style=&quot;font-size: 14px&quot;&gt;&lt;b&gt;算法市场：&lt;/b&gt;&lt;/font&gt;开发者开发、共享算法仓库+PPL" style="rounded=1;whiteSpace=wrap;html=1;" parent="1" vertex="1">
          <mxGeometry x="100" y="330" width="646" height="60" as="geometry" />
        </mxCell>
        <mxCell id="YrOK0ddBa_lv7EcNWVk2-19" style="edgeStyle=orthogonalEdgeStyle;curved=1;rounded=0;orthogonalLoop=1;jettySize=auto;html=1;" parent="1" target="YrOK0ddBa_lv7EcNWVk2-7" edge="1">
          <mxGeometry relative="1" as="geometry">
            <mxPoint x="95" y="160" as="sourcePoint" />
          </mxGeometry>
        </mxCell>
        <mxCell id="YrOK0ddBa_lv7EcNWVk2-20" value="业务沉淀" style="edgeLabel;html=1;align=center;verticalAlign=middle;resizable=0;points=[];" parent="YrOK0ddBa_lv7EcNWVk2-19" vertex="1" connectable="0">
          <mxGeometry x="-0.4" y="1" relative="1" as="geometry">
            <mxPoint as="offset" />
          </mxGeometry>
        </mxCell>
        <mxCell id="YrOK0ddBa_lv7EcNWVk2-2" value="算法开发者" style="shape=umlActor;verticalLabelPosition=bottom;verticalAlign=top;html=1;outlineConnect=0;" parent="1" vertex="1">
          <mxGeometry x="80" y="75" width="30" height="60" as="geometry" />
        </mxCell>
        <mxCell id="YrOK0ddBa_lv7EcNWVk2-3" value="算法使用者" style="shape=umlActor;verticalLabelPosition=bottom;verticalAlign=top;html=1;outlineConnect=0;" parent="1" vertex="1">
          <mxGeometry x="322" y="75" width="30" height="60" as="geometry" />
        </mxCell>
        <mxCell id="YrOK0ddBa_lv7EcNWVk2-14" style="edgeStyle=orthogonalEdgeStyle;curved=1;rounded=0;orthogonalLoop=1;jettySize=auto;html=1;exitX=0.5;exitY=1;exitDx=0;exitDy=0;entryX=0.119;entryY=0;entryDx=0;entryDy=0;entryPerimeter=0;" parent="1" source="YrOK0ddBa_lv7EcNWVk2-7" target="YrOK0ddBa_lv7EcNWVk2-1" edge="1">
          <mxGeometry relative="1" as="geometry" />
        </mxCell>
        <mxCell id="YrOK0ddBa_lv7EcNWVk2-16" value="发布" style="edgeLabel;html=1;align=center;verticalAlign=middle;resizable=0;points=[];" parent="YrOK0ddBa_lv7EcNWVk2-14" vertex="1" connectable="0">
          <mxGeometry x="-0.0333" y="3" relative="1" as="geometry">
            <mxPoint as="offset" />
          </mxGeometry>
        </mxCell>
        <mxCell id="YrOK0ddBa_lv7EcNWVk2-7" value="AI工作室、算法仓库" style="rounded=1;whiteSpace=wrap;html=1;" parent="1" vertex="1">
          <mxGeometry x="40" y="210" width="130" height="60" as="geometry" />
        </mxCell>
        <mxCell id="YrOK0ddBa_lv7EcNWVk2-21" style="edgeStyle=orthogonalEdgeStyle;curved=1;rounded=0;orthogonalLoop=1;jettySize=auto;html=1;exitX=0.5;exitY=0;exitDx=0;exitDy=0;" parent="1" source="YrOK0ddBa_lv7EcNWVk2-8" edge="1">
          <mxGeometry relative="1" as="geometry">
            <mxPoint x="337" y="160" as="targetPoint" />
          </mxGeometry>
        </mxCell>
        <mxCell id="YrOK0ddBa_lv7EcNWVk2-22" value="业务应用" style="edgeLabel;html=1;align=center;verticalAlign=middle;resizable=0;points=[];" parent="YrOK0ddBa_lv7EcNWVk2-21" vertex="1" connectable="0">
          <mxGeometry x="-0.08" relative="1" as="geometry">
            <mxPoint as="offset" />
          </mxGeometry>
        </mxCell>
        <mxCell id="YrOK0ddBa_lv7EcNWVk2-8" value="AI工作室、算法仓库" style="rounded=1;whiteSpace=wrap;html=1;" parent="1" vertex="1">
          <mxGeometry x="272" y="210" width="130" height="60" as="geometry" />
        </mxCell>
        <mxCell id="YrOK0ddBa_lv7EcNWVk2-25" value="对外/公有云" style="text;html=1;align=center;verticalAlign=middle;resizable=0;points=[];autosize=1;fontSize=16;" parent="1" vertex="1">
          <mxGeometry x="170" y="68" width="100" height="20" as="geometry" />
        </mxCell>
        <mxCell id="YrOK0ddBa_lv7EcNWVk2-37" value="复用" style="edgeStyle=orthogonalEdgeStyle;curved=1;rounded=0;orthogonalLoop=1;jettySize=auto;html=1;exitX=0.5;exitY=0;exitDx=0;exitDy=0;entryX=0.5;entryY=1;entryDx=0;entryDy=0;fontSize=13;" parent="1" target="YrOK0ddBa_lv7EcNWVk2-28" edge="1">
          <mxGeometry relative="1" as="geometry">
            <mxPoint x="649" y="330" as="sourcePoint" />
          </mxGeometry>
        </mxCell>
        <mxCell id="YrOK0ddBa_lv7EcNWVk2-36" value="发布" style="edgeStyle=orthogonalEdgeStyle;curved=1;rounded=0;orthogonalLoop=1;jettySize=auto;html=1;exitX=0.5;exitY=1;exitDx=0;exitDy=0;entryX=0.25;entryY=0;entryDx=0;entryDy=0;fontSize=13;" parent="1" source="YrOK0ddBa_lv7EcNWVk2-27" edge="1">
          <mxGeometry relative="1" as="geometry">
            <mxPoint x="584" y="330" as="targetPoint" />
          </mxGeometry>
        </mxCell>
        <mxCell id="YrOK0ddBa_lv7EcNWVk2-27" value="政务" style="rounded=1;whiteSpace=wrap;html=1;" parent="1" vertex="1">
          <mxGeometry x="516" y="212" width="70" height="60" as="geometry" />
        </mxCell>
        <mxCell id="YrOK0ddBa_lv7EcNWVk2-28" value="电力" style="rounded=1;whiteSpace=wrap;html=1;" parent="1" vertex="1">
          <mxGeometry x="616" y="212" width="70" height="60" as="geometry" />
        </mxCell>
        <mxCell id="YrOK0ddBa_lv7EcNWVk2-38" value="发布" style="edgeStyle=orthogonalEdgeStyle;curved=1;rounded=0;orthogonalLoop=1;jettySize=auto;html=1;exitX=0.5;exitY=1;exitDx=0;exitDy=0;entryX=0.75;entryY=0;entryDx=0;entryDy=0;fontSize=13;" parent="1" source="YrOK0ddBa_lv7EcNWVk2-32" edge="1">
          <mxGeometry relative="1" as="geometry">
            <mxPoint x="714" y="330" as="targetPoint" />
          </mxGeometry>
        </mxCell>
        <mxCell id="YrOK0ddBa_lv7EcNWVk2-32" value="媒体" style="rounded=1;whiteSpace=wrap;html=1;" parent="1" vertex="1">
          <mxGeometry x="716" y="212" width="70" height="60" as="geometry" />
        </mxCell>
        <mxCell id="YrOK0ddBa_lv7EcNWVk2-34" value="对内/私有云、内网" style="text;html=1;align=center;verticalAlign=middle;resizable=0;points=[];autosize=1;fontSize=16;" parent="1" vertex="1">
          <mxGeometry x="546" y="68" width="150" height="20" as="geometry" />
        </mxCell>
        <mxCell id="yTp5GHHRRxXiokvlLLee-1" value="人脸布控V1.0" style="rounded=1;whiteSpace=wrap;html=1;" parent="1" vertex="1">
          <mxGeometry x="110" y="528" width="130" height="22" as="geometry" />
        </mxCell>
        <mxCell id="yTp5GHHRRxXiokvlLLee-2" value="人脸建档V1.2" style="rounded=1;whiteSpace=wrap;html=1;" parent="1" vertex="1">
          <mxGeometry x="244" y="528" width="130" height="22" as="geometry" />
        </mxCell>
        <mxCell id="yTp5GHHRRxXiokvlLLee-3" value="车辆抓拍V0.1" style="rounded=1;whiteSpace=wrap;html=1;" parent="1" vertex="1">
          <mxGeometry x="110" y="555" width="130" height="22" as="geometry" />
        </mxCell>
        <mxCell id="yTp5GHHRRxXiokvlLLee-4" value="车辆违停V0.3" style="rounded=1;whiteSpace=wrap;html=1;" parent="1" vertex="1">
          <mxGeometry x="244" y="555" width="130" height="22" as="geometry" />
        </mxCell>
        <mxCell id="yTp5GHHRRxXiokvlLLee-11" value="编排" style="edgeStyle=orthogonalEdgeStyle;rounded=0;orthogonalLoop=1;jettySize=auto;html=1;exitX=0;exitY=0.5;exitDx=0;exitDy=0;entryX=1;entryY=0.5;entryDx=0;entryDy=0;" parent="1" source="yTp5GHHRRxXiokvlLLee-6" target="yTp5GHHRRxXiokvlLLee-5" edge="1">
          <mxGeometry relative="1" as="geometry" />
        </mxCell>
        <mxCell id="yTp5GHHRRxXiokvlLLee-13" style="edgeStyle=orthogonalEdgeStyle;rounded=0;orthogonalLoop=1;jettySize=auto;html=1;exitX=0.5;exitY=0;exitDx=0;exitDy=0;entryX=0.5;entryY=1;entryDx=0;entryDy=0;curved=1;startArrow=blockThin;startFill=1;" parent="1" source="yTp5GHHRRxXiokvlLLee-6" target="YrOK0ddBa_lv7EcNWVk2-1" edge="1">
          <mxGeometry relative="1" as="geometry" />
        </mxCell>
        <mxCell id="yTp5GHHRRxXiokvlLLee-15" value="发布、获取" style="edgeLabel;html=1;align=center;verticalAlign=middle;resizable=0;points=[];" parent="yTp5GHHRRxXiokvlLLee-13" vertex="1" connectable="0">
          <mxGeometry x="-0.2139" relative="1" as="geometry">
            <mxPoint as="offset" />
          </mxGeometry>
        </mxCell>
        <mxCell id="yTp5GHHRRxXiokvlLLee-6" value="&lt;font style=&quot;font-size: 14px&quot;&gt;&lt;b&gt;算法仓库&lt;br&gt;&lt;br&gt;&lt;br&gt;&lt;br&gt;&lt;br&gt;&lt;/b&gt;&lt;/font&gt;" style="rounded=1;whiteSpace=wrap;html=1;" parent="1" vertex="1">
          <mxGeometry x="446" y="500" width="281" height="88" as="geometry" />
        </mxCell>
        <mxCell id="yTp5GHHRRxXiokvlLLee-7" value="人脸特征V1.1" style="rounded=1;whiteSpace=wrap;html=1;" parent="1" vertex="1">
          <mxGeometry x="456" y="528" width="130" height="22" as="geometry" />
        </mxCell>
        <mxCell id="yTp5GHHRRxXiokvlLLee-8" value="Hades检索V5.0" style="rounded=1;whiteSpace=wrap;html=1;" parent="1" vertex="1">
          <mxGeometry x="590" y="528" width="130" height="22" as="geometry" />
        </mxCell>
        <mxCell id="yTp5GHHRRxXiokvlLLee-9" value="人脸跟踪V1.0" style="rounded=1;whiteSpace=wrap;html=1;" parent="1" vertex="1">
          <mxGeometry x="456" y="555" width="130" height="22" as="geometry" />
        </mxCell>
        <mxCell id="yTp5GHHRRxXiokvlLLee-10" value="车辆属性V2.1" style="rounded=1;whiteSpace=wrap;html=1;" parent="1" vertex="1">
          <mxGeometry x="590" y="555" width="130" height="22" as="geometry" />
        </mxCell>
        <mxCell id="yTp5GHHRRxXiokvlLLee-16" value="" style="endArrow=none;html=1;dashed=1;strokeWidth=2;" parent="1" edge="1">
          <mxGeometry width="50" height="50" relative="1" as="geometry">
            <mxPoint x="453" y="304" as="sourcePoint" />
            <mxPoint x="453" y="72" as="targetPoint" />
          </mxGeometry>
        </mxCell>
        <mxCell id="Ch-WJiWabACL-3RTD092-17" style="edgeStyle=orthogonalEdgeStyle;rounded=0;orthogonalLoop=1;jettySize=auto;html=1;exitX=1;exitY=0.5;exitDx=0;exitDy=0;entryX=0;entryY=0.5;entryDx=0;entryDy=0;curved=1;" edge="1" parent="1" source="Ch-WJiWabACL-3RTD092-1" target="Ch-WJiWabACL-3RTD092-2">
          <mxGeometry relative="1" as="geometry" />
        </mxCell>
        <mxCell id="Ch-WJiWabACL-3RTD092-25" value="调用服务" style="edgeLabel;html=1;align=center;verticalAlign=middle;resizable=0;points=[];" vertex="1" connectable="0" parent="Ch-WJiWabACL-3RTD092-17">
          <mxGeometry x="-0.05" y="-3" relative="1" as="geometry">
            <mxPoint as="offset" />
          </mxGeometry>
        </mxCell>
        <mxCell id="Ch-WJiWabACL-3RTD092-1" value="AI工作室" style="rounded=1;whiteSpace=wrap;html=1;" vertex="1" parent="1">
          <mxGeometry x="197" y="686" width="120" height="60" as="geometry" />
        </mxCell>
        <mxCell id="Ch-WJiWabACL-3RTD092-18" style="edgeStyle=orthogonalEdgeStyle;curved=1;rounded=0;orthogonalLoop=1;jettySize=auto;html=1;exitX=0.5;exitY=1;exitDx=0;exitDy=0;entryX=0.5;entryY=0;entryDx=0;entryDy=0;" edge="1" parent="1" source="Ch-WJiWabACL-3RTD092-2" target="Ch-WJiWabACL-3RTD092-13">
          <mxGeometry relative="1" as="geometry" />
        </mxCell>
        <mxCell id="Ch-WJiWabACL-3RTD092-19" style="edgeStyle=orthogonalEdgeStyle;curved=1;rounded=0;orthogonalLoop=1;jettySize=auto;html=1;exitX=0.5;exitY=1;exitDx=0;exitDy=0;entryX=0.5;entryY=0;entryDx=0;entryDy=0;" edge="1" parent="1" source="Ch-WJiWabACL-3RTD092-2" target="Ch-WJiWabACL-3RTD092-7">
          <mxGeometry relative="1" as="geometry" />
        </mxCell>
        <mxCell id="Ch-WJiWabACL-3RTD092-2" value="EMS" style="rounded=1;whiteSpace=wrap;html=1;" vertex="1" parent="1">
          <mxGeometry x="392" y="686" width="120" height="60" as="geometry" />
        </mxCell>
        <mxCell id="Ch-WJiWabACL-3RTD092-5" value="" style="endArrow=none;html=1;" edge="1" parent="1">
          <mxGeometry width="50" height="50" relative="1" as="geometry">
            <mxPoint x="10" y="844" as="sourcePoint" />
            <mxPoint x="618" y="844" as="targetPoint" />
          </mxGeometry>
        </mxCell>
        <mxCell id="Ch-WJiWabACL-3RTD092-6" value="设备中心" style="rounded=1;whiteSpace=wrap;html=1;" vertex="1" parent="1">
          <mxGeometry x="26" y="686" width="123" height="56" as="geometry" />
        </mxCell>
        <mxCell id="Ch-WJiWabACL-3RTD092-20" style="edgeStyle=orthogonalEdgeStyle;curved=1;rounded=0;orthogonalLoop=1;jettySize=auto;html=1;exitX=0.5;exitY=0;exitDx=0;exitDy=0;entryX=0.5;entryY=1;entryDx=0;entryDy=0;endArrow=diamondThin;endFill=0;" edge="1" parent="1" source="Ch-WJiWabACL-3RTD092-10" target="Ch-WJiWabACL-3RTD092-7">
          <mxGeometry relative="1" as="geometry">
            <mxPoint x="334" y="914" as="targetPoint" />
          </mxGeometry>
        </mxCell>
        <mxCell id="Ch-WJiWabACL-3RTD092-21" value="tke-edge实现边缘节点管理" style="edgeLabel;html=1;align=center;verticalAlign=middle;resizable=0;points=[];" vertex="1" connectable="0" parent="Ch-WJiWabACL-3RTD092-20">
          <mxGeometry x="0.0462" y="-2" relative="1" as="geometry">
            <mxPoint as="offset" />
          </mxGeometry>
        </mxCell>
        <mxCell id="Ch-WJiWabACL-3RTD092-7" value="边缘管理tke-edge" style="rounded=1;whiteSpace=wrap;html=1;" vertex="1" parent="1">
          <mxGeometry x="230" y="798" width="120" height="34" as="geometry" />
        </mxCell>
        <mxCell id="Ch-WJiWabACL-3RTD092-9" value="" style="rounded=1;whiteSpace=wrap;html=1;" vertex="1" parent="1">
          <mxGeometry x="48" y="906" width="171" height="163" as="geometry" />
        </mxCell>
        <mxCell id="Ch-WJiWabACL-3RTD092-10" value="边缘管理tke-edge" style="rounded=1;whiteSpace=wrap;html=1;" vertex="1" parent="1">
          <mxGeometry x="73.5" y="906" width="120" height="34" as="geometry" />
        </mxCell>
        <mxCell id="Ch-WJiWabACL-3RTD092-11" value="算法服务" style="rounded=1;whiteSpace=wrap;html=1;" vertex="1" parent="1">
          <mxGeometry x="73.5" y="997" width="120" height="34" as="geometry" />
        </mxCell>
        <mxCell id="Ch-WJiWabACL-3RTD092-13" value="云集群tke" style="rounded=1;whiteSpace=wrap;html=1;" vertex="1" parent="1">
          <mxGeometry x="442" y="799" width="120" height="34" as="geometry" />
        </mxCell>
        <mxCell id="Ch-WJiWabACL-3RTD092-22" style="edgeStyle=orthogonalEdgeStyle;curved=1;rounded=0;orthogonalLoop=1;jettySize=auto;html=1;exitX=0;exitY=0.5;exitDx=0;exitDy=0;entryX=0;entryY=0.75;entryDx=0;entryDy=0;endArrow=diamondThin;endFill=0;" edge="1" parent="1" source="Ch-WJiWabACL-3RTD092-14" target="Ch-WJiWabACL-3RTD092-6">
          <mxGeometry relative="1" as="geometry" />
        </mxCell>
        <mxCell id="Ch-WJiWabACL-3RTD092-23" value="AI工作室" style="edgeLabel;html=1;align=center;verticalAlign=middle;resizable=0;points=[];" vertex="1" connectable="0" parent="Ch-WJiWabACL-3RTD092-22">
          <mxGeometry x="0.3114" relative="1" as="geometry">
            <mxPoint as="offset" />
          </mxGeometry>
        </mxCell>
        <mxCell id="Ch-WJiWabACL-3RTD092-24" style="edgeStyle=orthogonalEdgeStyle;curved=1;rounded=0;orthogonalLoop=1;jettySize=auto;html=1;exitX=0;exitY=0.5;exitDx=0;exitDy=0;entryX=0;entryY=0.75;entryDx=0;entryDy=0;endArrow=diamondThin;endFill=0;" edge="1" parent="1" source="Ch-WJiWabACL-3RTD092-14" target="Ch-WJiWabACL-3RTD092-1">
          <mxGeometry relative="1" as="geometry" />
        </mxCell>
        <mxCell id="Ch-WJiWabACL-3RTD092-14" value="AI工作室执行器？" style="rounded=1;whiteSpace=wrap;html=1;" vertex="1" parent="1">
          <mxGeometry x="73.5" y="954" width="120" height="34" as="geometry" />
        </mxCell>
      </root>
    </mxGraphModel>
  </diagram>
</mxfile>
